<?xml version="1.0" standalone="no"?>
<!DOCTYPE svg PUBLIC "-//W3C//DTD SVG 20010904//EN"
 "http://www.w3.org/TR/2001/REC-SVG-20010904/DTD/svg10.dtd">
<svg version="1.0" xmlns="http://www.w3.org/2000/svg"
 width="16.000000pt" height="16.000000pt" viewBox="0 0 16.000000 16.000000"
 preserveAspectRatio="xMidYMid meet">
<metadata>
Created by potrace 1.11, written by Peter Selinger 2001-2013
</metadata>
<g transform="translate(0.000000,16.000000) scale(0.005654,-0.005654)"
fill="#000000" stroke="none">
<path d="M2423 2810 c-66 -23 -75 -30 -266 -213 -226 -216 -194 -194 -272
-183 -103 15 -137 18 -230 18 -284 0 -557 -86 -764 -241 -41 -31 -82 -62 -91
-69 -15 -11 -30 -3 -111 59 -150 114 -196 126 -282 75 -55 -31 -163 -155 -190
-216 -42 -95 -25 -136 103 -258 49 -47 90 -93 90 -102 0 -10 -12 -39 -26 -66
-48 -89 -102 -245 -121 -344 -27 -147 -18 -346 21 -475 14 -47 24 -93 23 -109
0 -11 -47 -68 -105 -127 -168 -173 -209 -238 -199 -317 7 -53 15 -70 66 -139
48 -66 104 -103 154 -103 54 0 98 31 227 156 72 70 139 134 150 141 18 13 30
10 110 -27 81 -36 181 -68 265 -85 68 -14 282 -13 365 2 115 20 265 71 396
134 60 30 114 54 119 54 13 1 127 -94 239 -200 47 -44 139 -111 174 -127 46
-21 124 -26 182 -13 92 20 302 202 335 289 30 79 10 171 -50 231 -5 6 -44 37
-85 70 -137 108 -300 247 -300 255 0 5 23 53 50 107 98 192 135 348 134 563
-1 160 -30 279 -100 417 l-54 107 47 50 c27 27 119 122 206 210 169 172 202
221 195 284 -9 72 -52 118 -164 172 -86 41 -164 48 -241 20z m-838 -822 c135
-29 290 -149 348 -268 80 -165 67 -383 -35 -585 -61 -122 -146 -225 -252 -304
-151 -114 -318 -173 -493 -173 -226 0 -409 131 -491 352 -78 209 10 515 208
717 90 93 240 194 335 226 11 4 34 12 50 18 95 33 227 40 330 17z"/>
</g>
</svg>
