<?xml version="1.0" encoding="utf-8"?>
<!-- Generator: Adobe Illustrator 20.1.0, SVG Export Plug-In . SVG Version: 6.00 Build 0)  -->
<svg version="1.1" id="Calque_1" xmlns="http://www.w3.org/2000/svg" xmlns:xlink="http://www.w3.org/1999/xlink" x="0px" y="0px"
	 viewBox="0 0 141.7 141.7" style="enable-background:new 0 0 141.7 141.7;" xml:space="preserve">
<style type="text/css">
	.st0{fill:#1D1917;}
</style>
<g>
	<path class="st0" d="M20.8,80.8c0.3,0.3,0.6,0.7,0.7,1.2l4.9,16.7L31.3,82c0.1-0.5,0.4-0.9,0.7-1.2c0.3-0.3,0.7-0.4,1.3-0.4
		c0.5,0,1,0.2,1.4,0.5c0.4,0.3,0.6,0.7,0.7,1.2l3.4,20.8l-2.7,0.5l-2.8-19.5l-5.5,18.6h-2.7l-5.5-18.6l-2.7,18.3
		c-0.1,0.4-0.2,0.7-0.5,0.9s-0.6,0.3-1,0.3c-0.4,0-0.7-0.1-0.9-0.3c-0.3-0.2-0.4-0.5-0.4-0.9c0-0.2,0-0.4,0-0.5l3.3-19.6
		c0.1-0.5,0.3-0.9,0.7-1.2c0.4-0.3,0.8-0.5,1.4-0.5S20.5,80.6,20.8,80.8z"/>
	<path class="st0" d="M50.7,80.8c0.3,0.3,0.5,0.7,0.7,1.3l7.9,20.6l-2.7,0.8l-2-5.2H44.3l-1.6,4.2c-0.1,0.3-0.3,0.5-0.5,0.7
		c-0.2,0.2-0.5,0.3-0.8,0.3c-0.4,0-0.7-0.1-0.9-0.4c-0.2-0.3-0.4-0.6-0.4-0.9c0-0.2,0.1-0.5,0.2-0.8l7.2-19.4
		c0.2-0.4,0.4-0.8,0.7-1.2c0.3-0.3,0.7-0.5,1.2-0.5C50,80.4,50.4,80.6,50.7,80.8z M53.9,96l-4.4-12.3L45,96H53.9z"/>
	<path class="st0" d="M61.1,81.7c0-0.4,0.1-0.7,0.4-0.9s0.6-0.4,0.9-0.4c0.4,0,0.7,0.1,1,0.4c0.3,0.3,0.4,0.6,0.4,1v8.4l10.3-9.7
		l1.9,1.8l-9.7,9.1l10.2,9.9c0.3,0.3,0.5,0.7,0.5,1.1c0,0.4-0.1,0.6-0.4,0.9s-0.5,0.3-0.9,0.3c-0.4,0-0.8-0.2-1.1-0.5L63.8,92.4
		v10.8h-2.7V81.7z"/>
	<path class="st0" d="M79.4,81.8c0-0.4,0.1-0.7,0.4-1c0.3-0.3,0.6-0.4,1-0.4c0.4,0,0.7,0.1,0.9,0.4c0.2,0.3,0.4,0.6,0.4,1v21.4h-2.7
		V81.8z"/>
	<path class="st0" d="M87,81.8c0-0.4,0.1-0.7,0.4-1c0.3-0.3,0.6-0.4,1-0.4c0.5,0,0.9,0.2,1.1,0.6l12.1,17.6l0-16.8
		c0-0.4,0.1-0.7,0.4-1c0.3-0.3,0.6-0.4,0.9-0.4c0.4,0,0.7,0.1,1,0.4c0.3,0.3,0.4,0.6,0.4,1v20.4c0,0.4-0.1,0.7-0.4,1
		c-0.3,0.3-0.6,0.4-1,0.4c-0.5,0-0.9-0.2-1.1-0.6L89.7,85.3v17.9l-2.7,0V81.8z"/>
	<path class="st0" d="M117.4,80.8c0.3,0.3,0.5,0.7,0.7,1.3l7.9,20.6l-2.7,0.8l-2-5.2H111l-1.6,4.2c-0.1,0.3-0.3,0.5-0.5,0.7
		s-0.5,0.3-0.8,0.3c-0.4,0-0.7-0.1-0.9-0.4c-0.2-0.3-0.4-0.6-0.4-0.9c0-0.2,0.1-0.5,0.2-0.8l7.2-19.4c0.2-0.4,0.4-0.8,0.7-1.2
		c0.3-0.3,0.7-0.5,1.2-0.5C116.7,80.4,117.1,80.6,117.4,80.8z M120.6,96l-4.4-12.3L111.7,96H120.6z"/>
</g>
<g>
	<path class="st0" d="M27.3,129.9c-0.3,0.4-0.6,0.8-1,1.1c-0.4,0.4-0.8,0.6-1.3,0.9c-0.5,0.2-1,0.4-1.5,0.6
		c-0.5,0.2-1.1,0.3-1.6,0.3c-0.5,0.1-1.1,0.1-1.5,0.1c-1.9,0-3.6-0.4-5.2-1.2c-1.5-0.8-2.8-2-3.7-3.5v0c-0.7-1-1.2-2.1-1.6-3.3
		c-0.4-1.2-0.6-2.4-0.6-3.6c0-1.5,0.2-2.9,0.7-4.2c0.5-1.3,1.1-2.5,2-3.5c0.8-1,1.9-1.9,3.1-2.6c1.2-0.7,2.5-1.1,4-1.2h0.7
		c0.6,0,1.2,0.1,1.9,0.2c0.7,0.1,1.4,0.3,2,0.6c0.7,0.3,1.3,0.5,1.9,0.9c0.6,0.3,1.1,0.7,1.5,1.1c0.1,0.1,0.2,0.2,0.3,0.4
		c0.1,0.1,0,0.3,0,0.4l-1.6,3.3c-0.1,0.2-0.4,0.3-0.6,0.4c-0.3,0-0.5,0-0.8-0.1c-0.6-0.5-1.2-0.9-1.9-1.2c-0.6-0.3-1.3-0.5-2-0.5
		c-0.2,0-0.4,0-0.7,0.1c-0.6,0.1-1.2,0.4-1.7,0.7c-0.5,0.4-0.9,0.8-1.3,1.3c-0.3,0.5-0.6,1.1-0.8,1.8c-0.2,0.7-0.3,1.4-0.3,2.1
		c0,0.8,0.1,1.5,0.3,2.2c0.2,0.7,0.4,1.4,0.8,1.9c0.4,0.6,0.8,1,1.4,1.3c0.6,0.3,1.2,0.5,1.9,0.5c0.5,0,1.1-0.1,1.5-0.3
		c0.5-0.2,0.9-0.4,1.3-0.5c0.3-0.2,0.7-0.3,1-0.4c0.3-0.1,0.7-0.2,1-0.2c0.8,0,1.5,0.2,2,0.7c0.6,0.5,0.8,1.1,0.8,1.9
		C27.7,129.1,27.6,129.5,27.3,129.9z"/>
	<path class="st0" d="M49.2,125.8c-0.5,1.4-1.3,2.6-2.3,3.7c-1,1.1-2.1,1.9-3.4,2.5c-1.3,0.6-2.8,0.9-4.4,0.9
		c-1.6,0-3.1-0.3-4.4-0.9c-1.3-0.6-2.5-1.5-3.4-2.5c-1-1.1-1.7-2.3-2.3-3.7c-0.5-1.4-0.8-2.9-0.8-4.4c0-1.6,0.3-3,0.8-4.4
		c0.5-1.4,1.3-2.6,2.3-3.7c1-1.1,2.1-1.9,3.4-2.5c1.3-0.6,2.8-0.9,4.4-0.9c1.6,0,3,0.3,4.4,0.9c1.3,0.6,2.5,1.5,3.4,2.5
		c1,1.1,1.7,2.3,2.3,3.7c0.5,1.4,0.8,2.9,0.8,4.4C50,122.9,49.7,124.4,49.2,125.8z M43.2,119.2c-0.2-0.8-0.4-1.4-0.8-2
		c-0.4-0.6-0.8-1.1-1.4-1.4c-0.6-0.4-1.2-0.5-2-0.5c-0.8,0-1.4,0.2-1.9,0.5c-0.5,0.4-1,0.8-1.3,1.4s-0.6,1.2-0.8,2
		c-0.2,0.7-0.3,1.5-0.3,2.2c0,0.8,0.1,1.5,0.3,2.2c0.2,0.7,0.4,1.4,0.8,2c0.4,0.6,0.8,1.1,1.3,1.4c0.5,0.4,1.2,0.5,1.9,0.5
		c0.7,0,1.4-0.2,1.9-0.5c0.6-0.3,1-0.8,1.4-1.4c0.4-0.6,0.7-1.2,0.8-1.9c0.2-0.7,0.3-1.5,0.3-2.2C43.5,120.7,43.4,120,43.2,119.2z"
		/>
	<path class="st0" d="M66,133.4c-0.2,0.1-0.4,0.1-0.7,0.1c-0.2,0-0.4-0.1-0.6-0.2l-5.6-7.4v4.1c0,0.4-0.1,0.8-0.2,1.2
		c-0.2,0.4-0.4,0.7-0.7,0.9c-0.3,0.3-0.6,0.5-1,0.6c-0.4,0.2-0.8,0.2-1.2,0.2c-0.4,0-0.8-0.1-1.2-0.2c-0.4-0.2-0.7-0.4-1-0.7
		c-0.3-0.3-0.5-0.6-0.7-1c-0.2-0.4-0.3-0.8-0.3-1.2v-19.2c0-0.2,0.1-0.4,0.3-0.5c0.2-0.1,0.4-0.2,0.7-0.1c0.1,0,0.3,0,0.5,0
		c0.2,0,0.4,0,0.7,0c0.3,0,0.6,0,0.9,0s0.7,0,1.1,0c0.6,0,1.1,0,1.7,0c0.6,0,1.1,0,1.5,0c0.3,0,0.6,0,0.8,0c0.2,0,0.4,0,0.5,0
		c1,0.2,2,0.4,2.9,0.8c0.9,0.4,1.7,0.8,2.4,1.4c0.7,0.6,1.2,1.3,1.6,2.2c0.4,0.9,0.6,1.9,0.6,3c0,0.8-0.1,1.5-0.4,2.1
		c-0.2,0.6-0.6,1.2-1,1.7c-0.4,0.5-0.9,0.9-1.5,1.3c-0.6,0.4-1.2,0.6-1.8,0.8l5.2,6.5c0.2,0.2,0.3,0.3,0.2,0.5s-0.2,0.3-0.4,0.4
		L66,133.4z M62.5,116.1c-0.3-0.4-0.6-0.6-1.1-0.6h-2.2v3.7h2.3c0.4,0,0.7-0.2,1-0.5c0.3-0.4,0.4-0.8,0.4-1.3
		C62.9,116.9,62.8,116.4,62.5,116.1z"/>
	<path class="st0" d="M89.1,120.9c-0.4,0.9-0.9,1.7-1.6,2.4s-1.5,1.2-2.4,1.6c-0.9,0.4-1.9,0.6-3,0.7h0c-0.2,0-0.7,0.1-1.3,0.1
		c-0.6,0-1.1,0-1.7,0v0.1c0,0.4,0,0.9,0,1.5c0,0.6,0,1.1-0.1,1.7c0,0.6-0.1,1.1-0.2,1.5c-0.1,0.5-0.2,0.8-0.3,1
		c-0.2,0.4-0.6,0.7-1,1c-0.4,0.3-0.9,0.4-1.5,0.4c-0.4,0-0.9-0.1-1.2-0.3c-0.4-0.2-0.7-0.4-1-0.7c-0.3-0.3-0.5-0.6-0.7-1
		c-0.2-0.4-0.2-0.8-0.2-1.2v-19.1c0-0.2,0.1-0.3,0.3-0.5c0.2-0.1,0.4-0.2,0.6-0.2h4.6c0.9,0,1.9,0,2.8,0.1c0.9,0.1,1.8,0.2,2.7,0.5
		v0c1.4,0.3,2.7,1,3.7,2c1,1,1.7,2.3,1.9,3.9c0.1,0.4,0.1,0.8,0.1,1.3C89.6,119,89.4,120,89.1,120.9z M82.8,116.2
		c-0.4-0.4-0.8-0.7-1.4-0.7h-2.2v4.7h2.2c0.5,0,1-0.2,1.4-0.7c0.4-0.5,0.6-1,0.6-1.6C83.4,117.2,83.2,116.7,82.8,116.2z"/>
	<path class="st0" d="M111.1,127.4c-0.5,1.2-1.2,2.1-2.1,3c-0.9,0.8-1.9,1.4-3.1,1.9c-1.2,0.4-2.5,0.6-3.9,0.6
		c-1.4,0-2.7-0.2-3.9-0.6c-1.2-0.4-2.3-1-3.1-1.9s-1.6-1.8-2.1-3c-0.5-1.2-0.8-2.5-0.8-4v-12.8c0-0.2,0.1-0.3,0.3-0.5
		c0.2-0.1,0.4-0.2,0.7-0.2h4.5c0.2,0,0.5,0.1,0.6,0.2c0.2,0.1,0.3,0.3,0.3,0.5v12.9c0,1.2,0.3,2.2,1,2.9c0.7,0.7,1.5,1.1,2.6,1.1
		c1.1,0,1.9-0.4,2.6-1.1c0.6-0.7,1-1.7,1-2.9v-10.7c0-0.4,0.1-0.8,0.2-1.2c0.2-0.4,0.4-0.7,0.7-1c0.3-0.3,0.6-0.5,1-0.7
		c0.4-0.2,0.8-0.2,1.2-0.2c0.4,0,0.9,0.1,1.2,0.3c0.4,0.2,0.7,0.4,1,0.7c0.3,0.3,0.5,0.6,0.7,1c0.2,0.4,0.2,0.8,0.2,1.2v10.6
		C111.8,125,111.6,126.3,111.1,127.4z"/>
	<path class="st0" d="M125.8,119.1c0.9,0.3,1.7,0.8,2.5,1.3c0.8,0.5,1.4,1.2,1.9,2c0.5,0.8,0.7,1.7,0.7,2.9c0,0.8-0.1,1.5-0.4,2.3
		c-0.3,0.7-0.6,1.4-1.1,2.1c-0.8,1.1-1.9,2-3.1,2.5c-1.2,0.5-2.5,0.8-3.9,0.8c-0.5,0-1.1-0.1-1.8-0.2c-0.7-0.1-1.4-0.3-2.2-0.5
		c-0.7-0.2-1.5-0.4-2.1-0.7c-0.7-0.2-1.3-0.5-1.7-0.7c-0.2,0-0.3-0.1-0.4-0.3s-0.1-0.3-0.1-0.4c0.1-0.5,0.2-1,0.3-1.4
		c0.1-0.4,0.2-0.7,0.3-1.1c0-0.2,0.1-0.3,0.1-0.4c0-0.1,0.1-0.2,0.1-0.3l0,0c0-0.1,0.1-0.2,0.1-0.3c0-0.1,0.1-0.2,0.1-0.3
		c0-0.1,0-0.1,0-0.2v0.1c0,0,0-0.1,0-0.1c0-0.3,0.1-0.4,0.4-0.6c0.3-0.1,0.6-0.1,0.9,0c0.1,0,0.3,0.1,0.5,0.2
		c0.2,0.1,0.5,0.2,0.8,0.3c0.3,0.1,0.6,0.2,0.8,0.3c0.3,0.1,0.5,0.2,0.7,0.2c0.6,0.2,1.2,0.4,1.7,0.6c0.5,0.2,1.1,0.3,1.5,0.3
		c0.2,0,0.5-0.1,0.7-0.2s0.5-0.2,0.6-0.4c0.2-0.2,0.3-0.4,0.5-0.6s0.2-0.5,0.2-0.8c0-0.2-0.1-0.4-0.2-0.5c-0.1-0.1-0.3-0.3-0.5-0.4
		c-0.2-0.1-0.4-0.2-0.6-0.3c-0.2-0.1-0.4-0.2-0.5-0.2v0c-0.5-0.2-1-0.4-1.5-0.6c-0.8-0.3-1.6-0.6-2.3-0.9c-0.8-0.3-1.5-0.7-2.1-1.2
		c-0.6-0.5-1.1-1.1-1.5-1.8c-0.4-0.7-0.6-1.6-0.6-2.7c0-1.1,0.2-2.1,0.7-3c0.5-0.9,1.1-1.6,1.9-2.2s1.7-1,2.6-1.4c1-0.3,2-0.5,3-0.5
		c0.5,0,1.2,0.1,1.9,0.2s1.5,0.4,2.2,0.7c0.7,0.3,1.3,0.7,1.8,1.2c0.5,0.5,0.7,1.1,0.7,1.8c0,0.7-0.3,1.3-0.8,1.9
		c-0.5,0.5-1.2,0.8-2,0.8c-0.4,0-0.8-0.1-1.2-0.2s-0.7-0.3-1.1-0.4c-0.4-0.1-0.7-0.3-1.1-0.4c-0.4-0.1-0.8-0.2-1.2-0.2
		c-0.3,0-0.6,0.1-0.8,0.3c-0.3,0.2-0.4,0.5-0.4,0.9c0,0.2,0.1,0.4,0.2,0.6s0.3,0.3,0.4,0.4c0.2,0.1,0.4,0.2,0.6,0.3
		c0.2,0.1,0.4,0.2,0.6,0.2c0.1,0.1,0.2,0.1,0.3,0.1l-0.1-0.1l0.1,0c0,0,0,0,0,0C124,118.4,124.9,118.7,125.8,119.1z"/>
</g>
<path class="st0" d="M98.9,55.9c-2.4-1.9-4.7-3.8-7-5.8c-1-0.8-1-0.9-0.4-2c1.4-2.5,2.4-5,3-7.8c0.9-4.2,0.8-8.4-0.6-12.6
	c-0.5-1.4-1.1-2.6-1.9-3.8c-0.2-0.4-0.4-0.7,0-1.1c1.1-1.1,2.1-2.3,3.3-3.5c1.7-1.7,3.4-3.4,5-5.2c1.7-2,1.3-4.4-0.9-5.7
	c-0.7-0.4-1.3-0.7-2-1.1c-1.7-0.9-3.5-0.8-5.2-0.1c-1.4,0.6-2.4,1.6-3.4,2.7l-5.9,5.7c-0.4,0.2-0.5,0.3-0.8,0.3
	c-0.4,0-0.7-0.1-1.1-0.2c-14.7-2.3-23,6.3-23,6.3c-0.3,0.4-0.7,0.3-1.1,0c-1-0.8-2.1-1.6-3.1-2.4c-1.6-1.3-2.8-1.5-4.6-0.4
	c-1.1,0.7-1.8,1.8-2.7,2.7c-0.4,0.5-0.8,1-1.1,1.6c-0.9,1.5-0.8,3.1,0.4,4.4c1.1,1.1,2.2,2.1,3.3,3.2c0.4,0.4,0.5,0.8,0.2,1.2
	c-0.4,0.7-0.7,1.4-1,2c-2.6,5.9-3.3,11.9-1.2,18.1c0.3,0.9,0.1,1.5-0.5,2.1C44.8,56.4,43,58,41.6,60c-1.3,1.7-1.3,3.7-0.1,5.4
	c0.4,0.6,0.9,1.2,1.4,1.8c1.3,1.5,3.4,1.6,4.9,0.2c1.6-1.4,3-3,4.5-4.4c1.8-1.7,1.2-1.7,3.5-0.5c3.7,1.8,7.6,2.4,11.6,2.1
	c4.3-0.4,8.2-1.9,12-4c1.1-0.6,1.2-0.6,2.1,0.3l1.6,1.4c1.5,1.4,3,2.8,4.6,4.1c2.1,1.8,5.3,1.9,7.5,0.3c1.5-1.1,2.8-2.3,4.1-3.6
	C101.3,61,101.3,57.8,98.9,55.9z M77.9,48.6c-5.5,5.7-15.3,7.8-20.4,2.2C52.1,45,54,37.6,57.9,32.3s13.6-11,21.1-5.2
	C86.1,32.6,83.4,42.9,77.9,48.6z"/>
<path class="st0" d="M146,135.1"/>
</svg>
