<?xml version="1.0" encoding="UTF-8" standalone="no"?>
<!-- Generator: Adobe Illustrator 20.1.0, SVG Export Plug-In . SVG Version: 6.00 Build 0)  -->

<svg
   xmlns:dc="http://purl.org/dc/elements/1.1/"
   xmlns:cc="http://creativecommons.org/ns#"
   xmlns:rdf="http://www.w3.org/1999/02/22-rdf-syntax-ns#"
   xmlns:svg="http://www.w3.org/2000/svg"
   xmlns="http://www.w3.org/2000/svg"
   xmlns:sodipodi="http://sodipodi.sourceforge.net/DTD/sodipodi-0.dtd"
   xmlns:inkscape="http://www.inkscape.org/namespaces/inkscape"
   version="1.1"
   id="Calque_1"
   x="0px"
   y="0px"
   viewBox="0 0 141.7 141.7"
   style="enable-background:new 0 0 141.7 141.7;"
   xml:space="preserve"
   inkscape:version="0.91 r13725"
   sodipodi:docname="MakinaCorpus_logo_vert_blanc.svg"><metadata
     id="metadata41"><rdf:RDF><cc:Work
         rdf:about=""><dc:format>image/svg+xml</dc:format><dc:type
           rdf:resource="http://purl.org/dc/dcmitype/StillImage" /><dc:title></dc:title></cc:Work></rdf:RDF></metadata><defs
     id="defs39" /><sodipodi:namedview
     pagecolor="#ffffff"
     bordercolor="#666666"
     borderopacity="1"
     objecttolerance="10"
     gridtolerance="10"
     guidetolerance="10"
     inkscape:pageopacity="0"
     inkscape:pageshadow="2"
     inkscape:window-width="1735"
     inkscape:window-height="690"
     id="namedview37"
     showgrid="true"
     showguides="false"
     inkscape:zoom="3.7544108"
     inkscape:cx="69.385055"
     inkscape:cy="69.490763"
     inkscape:window-x="10"
     inkscape:window-y="15"
     inkscape:window-maximized="0"
     inkscape:current-layer="Calque_1" /><style
     type="text/css"
     id="style3">
	.st0{fill:#FFFFFF;}
</style><g
     id="g4171"
     transform="matrix(2.3155239,0,0,2.2985395,-92.846523,-15.294123)"><path
       id="path33"
       d="m 98.9,55.9 c -2.4,-1.9 -4.7,-3.8 -7,-5.8 -1,-0.8 -1,-0.9 -0.4,-2 1.4,-2.5 2.4,-5 3,-7.8 0.9,-4.2 0.8,-8.4 -0.6,-12.6 -0.5,-1.4 -1.1,-2.6 -1.9,-3.8 -0.2,-0.4 -0.4,-0.7 0,-1.1 1.1,-1.1 2.1,-2.3 3.3,-3.5 1.7,-1.7 3.4,-3.4 5,-5.2 1.7,-2 1.3,-4.4 -0.9,-5.7 C 98.7,8 98.1,7.7 97.4,7.3 95.7,6.4 93.9,6.5 92.2,7.2 90.8,7.8 89.8,8.8 88.8,9.9 l -5.9,5.7 c -0.4,0.2 -0.5,0.3 -0.8,0.3 -0.4,0 -0.7,-0.1 -1.1,-0.2 C 66.3,13.4 58,22 58,22 c -0.3,0.4 -0.7,0.3 -1.1,0 -1,-0.8 -2.1,-1.6 -3.1,-2.4 -1.6,-1.3 -2.8,-1.5 -4.6,-0.4 -1.1,0.7 -1.8,1.8 -2.7,2.7 -0.4,0.5 -0.8,1 -1.1,1.6 -0.9,1.5 -0.8,3.1 0.4,4.4 1.1,1.1 2.2,2.1 3.3,3.2 0.4,0.4 0.5,0.8 0.2,1.2 -0.4,0.7 -0.7,1.4 -1,2 -2.6,5.9 -3.3,11.9 -1.2,18.1 0.3,0.9 0.1,1.5 -0.5,2.1 -1.8,1.9 -3.6,3.5 -5,5.5 -1.3,1.7 -1.3,3.7 -0.1,5.4 0.4,0.6 0.9,1.2 1.4,1.8 1.3,1.5 3.4,1.6 4.9,0.2 1.6,-1.4 3,-3 4.5,-4.4 1.8,-1.7 1.2,-1.7 3.5,-0.5 3.7,1.8 7.6,2.4 11.6,2.1 4.3,-0.4 8.2,-1.9 12,-4 1.1,-0.6 1.2,-0.6 2.1,0.3 l 1.6,1.4 c 1.5,1.4 3,2.8 4.6,4.1 2.1,1.8 5.3,1.9 7.5,0.3 1.5,-1.1 2.8,-2.3 4.1,-3.6 2,-2.1 2,-5.3 -0.4,-7.2 z m -21,-7.3 C 72.4,54.3 62.6,56.4 57.5,50.8 52.1,45 54,37.6 57.9,32.3 61.8,27 71.5,21.3 79,27.1 c 7.1,5.5 4.4,15.8 -1.1,21.5 z"
       class="st0"
       inkscape:connector-curvature="0"
       style="fill:#ffffff" /></g><path
     class="st0"
     d="M146,135.1"
     id="path35" /></svg>