<?xml version="1.0" encoding="UTF-8" standalone="no"?>
<!-- Generator: Adobe Illustrator 20.1.0, SVG Export Plug-In . SVG Version: 6.00 Build 0)  -->

<svg
   xmlns:dc="http://purl.org/dc/elements/1.1/"
   xmlns:cc="http://creativecommons.org/ns#"
   xmlns:rdf="http://www.w3.org/1999/02/22-rdf-syntax-ns#"
   xmlns:svg="http://www.w3.org/2000/svg"
   xmlns="http://www.w3.org/2000/svg"
   xmlns:sodipodi="http://sodipodi.sourceforge.net/DTD/sodipodi-0.dtd"
   xmlns:inkscape="http://www.inkscape.org/namespaces/inkscape"
   version="1.1"
   id="Calque_1"
   x="0px"
   y="0px"
   viewBox="0 0 290.00001 290"
   xml:space="preserve"
   inkscape:version="0.91 r13725"
   sodipodi:docname="MakinaCorpus_logo_vert_quadri_blanc.svg"
   width="290"
   height="290"
   inkscape:export-filename="/home/kiorky/f/projects/mc/admindoc/themes/hugo-mc-docs/static/images/MakinaCorpus_logo_vert_quadri_blanc.png"
   inkscape:export-xdpi="90"
   inkscape:export-ydpi="90"><metadata
     id="metadata41"><rdf:RDF><cc:Work
         rdf:about=""><dc:format>image/svg+xml</dc:format><dc:type
           rdf:resource="http://purl.org/dc/dcmitype/StillImage" /><dc:title></dc:title></cc:Work></rdf:RDF></metadata><defs
     id="defs39" /><sodipodi:namedview
     pagecolor="#ffffff"
     bordercolor="#666666"
     borderopacity="1"
     objecttolerance="10"
     gridtolerance="10"
     guidetolerance="10"
     inkscape:pageopacity="0"
     inkscape:pageshadow="2"
     inkscape:window-width="1514"
     inkscape:window-height="848"
     id="namedview37"
     showgrid="false"
     inkscape:zoom="1.6654905"
     inkscape:cx="12.698807"
     inkscape:cy="137.31935"
     inkscape:window-x="254"
     inkscape:window-y="38"
     inkscape:window-maximized="0"
     inkscape:current-layer="Calque_1"
     inkscape:snap-bbox="false" /><style
     type="text/css"
     id="style3">
	.st0{fill:#FFFFFF;}
	.st1{fill:#ADB31B;}
</style><path
     class="st1"
     d="m 274.57088,229.14616 c -11.16602,-8.69071 -21.86681,-17.40237 -32.56759,-26.55378 -4.6525,-3.66475 -4.6525,-4.12548 -1.86101,-9.15141 6.51351,-11.45499 11.16603,-22.90997 13.95754,-35.72614 4.18727,-19.22426 3.72201,-38.44852 -2.79151,-57.69372 -2.32625,-6.408089 -5.11777,-11.894754 -8.83977,-17.402359 -0.9305,-1.821908 -1.86101,-3.204044 0,-5.02595 5.11777,-5.046893 9.77028,-10.533555 15.35329,-16.020219 7.90928,-7.790221 15.81856,-15.580446 23.26253,-23.81044 7.90928,-9.172361 6.04827,-20.145687 -4.18724,-26.114002 -3.25673,-1.8219082 -6.04825,-3.2040448 -9.30501,-5.025952 -7.90927,-4.1254672 -16.2838,-3.6647551 -24.19307,-0.4607111 -6.51351,2.7433309 -11.16601,7.3295101 -15.81853,12.3554611 l -27.44982,26.114003 c -1.861,0.900483 -2.32624,1.361195 -3.722,1.361195 -1.86101,0 -3.25676,-0.460712 -5.11777,-0.921424 C 122.899,34.558098 84.283162,73.928045 84.283162,73.928045 c -1.395754,1.821907 -3.256757,1.382135 -5.117764,0 C 74.512886,70.263289 69.395125,66.598532 64.742614,62.933777 57.298595,56.986402 51.715581,56.064978 43.341062,61.11187 c -5.117764,3.204045 -8.37452,8.229996 -12.561784,12.355462 -1.861004,2.28262 -3.722009,4.58618 -5.11776,7.329511 -4.187261,6.868803 -3.722012,14.198316 1.861003,20.145687 5.117763,5.02596 10.235527,9.61212 15.353289,14.65903 1.861004,1.82189 2.326255,3.66475 0.930503,5.48665 -1.861005,3.20406 -3.256759,6.40808 -4.652512,9.15142 -12.096532,27.01449 -15.353289,54.48968 -5.583017,82.88632 1.395758,4.12544 0.465253,6.86878 -2.326254,9.61212 -8.37452,8.6907 -16.749041,16.02021 -23.2625754,25.17164 -6.0482647,7.79022 -6.0482647,16.94165 -0.4652511,24.73185 1.8610045,2.74333 4.1872795,5.48667 6.5135345,8.25093 6.048265,6.86881 15.818537,7.32952 22.797307,0.90049 7.444017,-6.40809 13.957535,-13.7376 20.936303,-20.14568 8.374519,-7.76929 5.583012,-7.76929 16.283788,-2.28262 17.214292,8.25093 35.359084,10.99426 53.969134,9.61213 20.00579,-1.82192 38.15059,-8.6907 55.83012,-18.30284 5.11777,-2.76426 5.58302,-2.76426 9.7703,1.36119 l 7.444,6.40808 c 6.97876,6.40812 13.95754,12.83713 21.40157,18.7845 9.77027,8.23001 24.65829,8.69072 34.89382,1.36121 6.97879,-5.02596 13.02704,-10.53357 19.07528,-16.48094 9.30501,-9.61213 9.30501,-24.27116 -1.86098,-32.96185 z m -97.70274,-33.42259 c -25.58882,26.09308 -71.18343,35.7052 -94.911237,10.07287 C 56.833345,179.24265 65.673116,145.35937 83.817911,121.08821 101.9627,96.817063 147.09207,70.723999 181.98589,97.277772 c 33.03284,25.192588 20.47107,72.352748 -5.11775,98.445798 z"
     id="path33"
     inkscape:connector-curvature="0"
     style="fill:#adb31b"
     inkscape:export-xdpi="90"
     inkscape:export-ydpi="90" /><path
     class="st0"
     d="M 146,283.4"
     id="path35"
     inkscape:connector-curvature="0"
     style="fill:#ffffff" /></svg>